<?xml version="1.0" encoding="UTF-8"?>
<svg xmlns="http://www.w3.org/2000/svg" xmlns:xlink="http://www.w3.org/1999/xlink" width="519.65pt" height="519.65pt" viewBox="0 0 519.65 519.65" version="1.1">
<defs>
<clipPath id="clip1">
  <path d="M 0 0 L 519.648438 0 L 519.648438 519.648438 L 0 519.648438 Z M 0 0 "/>
</clipPath>
</defs>
<g id="surface1">
<g clip-path="url(#clip1)" clip-rule="nonzero">
<path style=" stroke:none;fill-rule:nonzero;fill:rgb(13.699341%,12.199402%,12.5%);fill-opacity:1;" d="M 158.835938 20.476563 C 127.914063 33.59375 100.125 52.351563 76.238281 76.238281 C 52.347656 100.128906 33.589844 127.917969 20.472656 158.839844 C 6.886719 190.871094 0 224.847656 0 259.828125 C 0 294.804688 6.886719 328.785156 20.472656 360.8125 C 33.589844 391.734375 52.347656 419.523438 76.238281 443.414063 C 100.125 467.300781 127.914063 486.0625 158.835938 499.175781 C 190.867188 512.761719 224.84375 519.648438 259.824219 519.648438 C 294.804688 519.648438 328.78125 512.761719 360.8125 499.175781 C 391.730469 486.0625 419.523438 467.300781 443.410156 443.414063 C 467.296875 419.523438 486.058594 391.734375 499.171875 360.8125 C 512.757813 328.785156 519.648438 294.804688 519.648438 259.828125 C 519.648438 224.847656 512.757813 190.871094 499.171875 158.839844 C 486.058594 127.917969 467.296875 100.128906 443.410156 76.238281 C 419.523438 52.351563 391.730469 33.59375 360.8125 20.476563 C 328.78125 6.890625 294.804688 0.00390625 259.824219 0.00390625 C 224.84375 0.00390625 190.867188 6.890625 158.835938 20.476563 "/>
</g>
<path style=" stroke:none;fill-rule:nonzero;fill:rgb(100%,100%,100%);fill-opacity:1;" d="M 162.773438 489.898438 C 133.046875 477.289063 106.332031 459.253906 83.363281 436.285156 C 60.398438 413.316406 42.359375 386.601563 29.753906 356.878906 C 16.699219 326.101563 10.082031 293.445313 10.082031 259.828125 C 10.082031 226.207031 16.699219 193.554688 29.753906 162.773438 C 42.359375 133.050781 60.398438 106.335938 83.363281 83.367188 C 106.332031 60.402344 133.046875 42.363281 162.773438 29.757813 C 193.550781 16.703125 226.203125 10.082031 259.824219 10.082031 C 293.445313 10.082031 326.097656 16.703125 356.875 29.757813 C 386.597656 42.363281 413.316406 60.402344 436.28125 83.367188 C 459.25 106.335938 477.285156 133.050781 489.894531 162.773438 C 502.949219 193.554688 509.566406 226.207031 509.566406 259.828125 C 509.566406 293.445313 502.949219 326.101563 489.894531 356.878906 C 477.285156 386.601563 459.25 413.316406 436.28125 436.285156 C 413.316406 459.253906 386.597656 477.289063 356.875 489.898438 C 326.097656 502.949219 293.445313 509.570313 259.824219 509.570313 C 226.203125 509.570313 193.550781 502.949219 162.773438 489.898438 M 144.796875 144.800781 C 113.992188 175.605469 97.027344 216.457031 97.027344 259.828125 C 97.027344 303.230469 113.992188 344.101563 144.796875 374.90625 C 175.601563 405.710938 216.453125 422.675781 259.824219 422.675781 C 303.25 422.675781 344.101563 405.710938 374.851563 374.90625 C 405.6875 344.066406 422.671875 303.199219 422.671875 259.828125 C 422.671875 216.488281 405.6875 175.640625 374.847656 144.800781 C 344.101563 113.996094 303.25 97.03125 259.824219 97.03125 C 216.453125 97.03125 175.601563 113.996094 144.796875 144.800781 "/>
<path style=" stroke:none;fill-rule:evenodd;fill:rgb(25.498962%,58.399963%,37.298584%);fill-opacity:1;" d="M 260.023438 414.230469 C 260.023438 414.230469 258.863281 414.601563 257.878906 414.667969 C 257.878906 414.667969 256.324219 414.039063 254.871094 413.402344 L 254.796875 412.902344 C 254.796875 406.539063 254.796875 400.210938 254.796875 393.839844 L 254.796875 393.238281 L 254.414063 392.804688 C 252.890625 391.117188 251.3125 389.375 249.734375 387.523438 C 243.472656 380.339844 236.832031 372.664063 230.574219 372.554688 C 227.632813 372.5 224.695313 372.609375 221.917969 372.71875 C 217.019531 372.882813 212.664063 373.046875 210.105469 372.28125 C 209.398438 372.066406 208.855469 371.738281 208.527344 371.355469 C 208.363281 371.195313 208.257813 370.976563 208.199219 370.761719 C 208.148438 370.484375 208.199219 370.160156 208.308594 369.777344 C 208.636719 368.746094 209.617188 367.382813 211.46875 365.804688 L 214.1875 363.410156 L 210.597656 363.085938 C 202.050781 362.324219 195.734375 360.851563 192.90625 358.347656 C 190.566406 356.28125 191.109375 353.015625 195.574219 348.277344 L 197.476563 346.265625 L 194.757813 345.664063 C 188.007813 344.25 182.507813 342.289063 178.753906 339.898438 C 176.414063 338.425781 174.78125 336.738281 174.019531 334.996094 C 173.3125 333.308594 173.363281 331.515625 174.289063 329.554688 C 175.160156 327.8125 176.683594 325.960938 178.972656 324.003906 L 180.441406 322.75 L 178.863281 321.605469 C 173.203125 317.578125 171.40625 312.789063 171.949219 308.925781 C 172.277344 306.746094 173.363281 304.839844 174.835938 303.589844 C 176.304688 302.390625 178.210938 301.796875 180.222656 302.121094 C 183.816406 302.773438 187.953125 306.257813 191.21875 314.203125 L 192.199219 316.601563 L 193.832031 314.585938 C 196.335938 311.589844 198.621094 309.742188 200.636719 308.980469 C 201.996094 308.433594 203.246094 308.433594 204.28125 308.925781 C 205.425781 309.46875 206.40625 310.558594 207.277344 312.191406 C 208.910156 315.402344 209.890625 320.519531 209.941406 327.214844 L 209.941406 333.09375 L 212.828125 327.976563 C 214.1875 325.527344 215.765625 324.164063 217.238281 323.785156 C 218.109375 323.566406 218.980469 323.675781 219.796875 324.109375 C 220.71875 324.601563 221.589844 325.417969 222.355469 326.5625 C 224.367188 329.71875 225.347656 334.941406 224.148438 341.53125 L 223.0625 347.300781 L 226.871094 342.78125 C 228.832031 340.441406 230.246094 339.40625 231.390625 339.296875 C 232.371094 339.1875 233.402344 339.898438 234.546875 341.09375 C 237.757813 344.304688 238.140625 354.320313 238.410156 361.398438 C 238.519531 365.097656 238.628906 368.09375 239.226563 369.34375 C 240.535156 372.339844 242.546875 375.058594 244.835938 377.617188 C 247.121094 380.121094 249.789063 382.515625 252.507813 384.75 L 255.066406 386.871094 L 255.066406 344.792969 L 254.6875 344.359375 C 242.277344 330.753906 232.097656 317.035156 224.039063 303.261719 C 220.339844 296.894531 217.019531 290.527344 214.132813 284.15625 C 219.632813 294.0625 224.910156 302.828125 229.921875 310.394531 C 238.355469 323.023438 246.140625 332.222656 253.105469 337.175781 L 255.449219 338.808594 L 255.609375 335.976563 C 256.699219 312.136719 249.078125 305.277344 242.875 299.671875 C 239.335938 296.40625 236.289063 293.683594 236.234375 287.75 C 236.234375 286.554688 236.613281 285.355469 237.429688 284.484375 C 238.140625 283.667969 239.171875 283.070313 240.589844 282.851563 L 244.890625 282.199219 L 241.132813 280.019531 C 236.832031 277.464844 234.058594 274.796875 232.695313 272.292969 C 231.988281 270.984375 231.714844 269.789063 231.824219 268.753906 C 231.933594 267.773438 232.371094 266.902344 233.1875 266.25 C 234.21875 265.324219 235.851563 264.671875 237.976563 264.398438 L 242.386719 263.855469 L 238.574219 261.566406 C 235.6875 259.828125 233.621094 257.59375 232.589844 255.417969 C 231.988281 254.164063 231.769531 252.914063 231.933594 251.824219 C 232.097656 250.789063 232.640625 249.8125 233.566406 249.050781 C 234.816406 248.015625 236.832031 247.253906 239.71875 246.980469 L 243.253906 246.652344 L 240.644531 244.3125 C 236.996094 241.101563 236.070313 237.671875 236.671875 235.003906 C 236.941406 234.027344 237.378906 233.101563 237.976563 232.394531 C 238.628906 231.632813 239.390625 231.085938 240.261719 230.703125 C 242.277344 229.78125 244.890625 229.996094 247.394531 232.066406 L 249.894531 234.136719 L 249.894531 230.867188 C 249.894531 225.644531 252.347656 222.269531 255.449219 220.855469 C 256.644531 220.253906 258.007813 219.980469 259.3125 219.980469 C 260.675781 220.035156 261.980469 220.363281 263.179688 220.960938 C 266.171875 222.539063 268.402344 226.132813 268.183594 231.792969 L 268.074219 234.84375 L 270.636719 233.15625 C 273.410156 231.359375 276.023438 231.359375 277.980469 232.394531 C 278.855469 232.882813 279.617188 233.589844 280.160156 234.40625 C 280.757813 235.277344 281.140625 236.257813 281.304688 237.289063 C 281.738281 240.066406 280.597656 243.335938 277.058594 246.054688 L 272.976563 249.15625 L 278.144531 248.777344 C 280.539063 248.613281 282.230469 249.265625 283.316406 250.410156 C 284.132813 251.171875 284.625 252.207031 284.839844 253.402344 C 285.113281 254.601563 285.058594 255.90625 284.785156 257.160156 C 284.1875 259.5 282.71875 261.679688 280.433594 262.765625 L 275.804688 264.996094 L 280.921875 265.703125 C 283.046875 265.976563 284.570313 266.902344 285.441406 268.15625 C 286.09375 269.027344 286.421875 270.167969 286.421875 271.367188 C 286.421875 272.617188 286.09375 273.925781 285.386719 275.230469 C 284.132813 277.679688 281.628906 279.859375 278.09375 280.890625 L 274.609375 281.871094 L 277.765625 283.722656 C 279.019531 284.429688 280.050781 285.355469 280.703125 286.390625 C 281.359375 287.371094 281.683594 288.402344 281.628906 289.492188 C 281.359375 295.535156 277.601563 298.582031 273.410156 301.957031 C 266.117188 307.890625 257.625 314.804688 260.726563 337.9375 L 261.109375 340.714844 L 263.285156 338.863281 C 273.574219 330.152344 283.046875 319.160156 291.589844 306.257813 C 294.3125 302.121094 296.980469 297.820313 299.484375 293.355469 C 297.140625 298.363281 294.640625 303.261719 291.863281 307.996094 C 283.589844 322.316406 273.410156 335.050781 261 345.503906 L 260.457031 345.992188 L 260.457031 387.796875 L 262.90625 386.164063 C 276.949219 376.691406 277.328125 367.492188 277.710938 358.839844 C 277.929688 353.941406 278.09375 349.257813 281.085938 345.011719 C 281.902344 343.871094 283.316406 343.214844 284.949219 343.054688 C 286.964844 342.78125 289.195313 343.160156 291.046875 343.980469 L 294.09375 345.394531 L 293.167969 342.128906 C 291.699219 337.175781 292.082031 333.253906 293.386719 330.535156 C 294.039063 329.171875 294.964844 328.140625 296.054688 327.488281 C 297.089844 326.886719 298.230469 326.5625 299.429688 326.671875 C 301.226563 326.777344 303.074219 327.703125 304.707031 329.5 L 309.554688 334.941406 L 307.375 328.027344 C 305.796875 323.183594 306.613281 319.050781 308.574219 316.109375 C 309.605469 314.585938 310.96875 313.335938 312.546875 312.515625 C 314.070313 311.699219 315.757813 311.265625 317.445313 311.320313 C 320.113281 311.375 322.726563 312.625 324.738281 315.292969 L 326.589844 317.851563 L 327.460938 314.804688 C 329.203125 308.871094 332.578125 306.203125 336.0625 305.65625 C 338.890625 305.277344 341.722656 306.203125 343.898438 307.890625 C 345.96875 309.523438 347.328125 311.863281 347.164063 314.367188 C 346.949219 317.523438 344.390625 321.007813 337.964844 324.003906 L 335.789063 325.035156 L 337.640625 326.617188 C 339.761719 328.410156 341.121094 330.261719 341.722656 332.113281 C 342.375 334.070313 342.214844 336.03125 341.394531 337.882813 C 340.46875 339.785156 338.839844 341.582031 336.605469 343.054688 C 333.121094 345.339844 328.277344 346.917969 322.5625 347.1875 L 319.40625 347.355469 L 321.472656 349.746094 C 322.996094 351.546875 323.761719 353.339844 323.921875 355.027344 C 324.03125 356.496094 323.597656 357.914063 322.78125 359.109375 C 321.855469 360.363281 320.4375 361.398438 318.644531 362.160156 C 315.648438 363.355469 311.566406 363.628906 306.722656 362.59375 L 302.261719 361.613281 L 305.199219 365.097656 C 305.308594 365.261719 305.414063 365.371094 305.472656 365.480469 C 306.234375 366.566406 306.34375 367.875 306.070313 369.070313 C 305.742188 370.324219 305.035156 371.523438 304.109375 372.28125 C 303.945313 372.390625 303.839844 372.5 303.730469 372.554688 C 299.589844 375.332031 296.761719 374.789063 293.714844 374.242188 C 287.179688 373.046875 279.726563 371.683594 260.347656 393.078125 L 259.964844 393.511719 L 259.964844 412.238281 L 260.023438 414.230469 "/>
<path style=" stroke:none;fill-rule:evenodd;fill:rgb(25.498962%,58.399963%,37.298584%);fill-opacity:1;" d="M 197.9375 270.535156 C 199.257813 269.304688 200.847656 268 202.539063 266.738281 C 205.261719 264.726563 208.308594 262.875 210.921875 261.679688 C 211.425781 261.441406 211.921875 261.230469 212.402344 261.046875 L 212.230469 260.667969 C 212.09375 260.386719 211.945313 260.105469 211.792969 259.828125 C 209.835938 256.34375 207.167969 253.675781 204.445313 252.261719 C 201.886719 250.898438 199.328125 250.628906 197.316406 251.714844 C 195.300781 252.804688 194.15625 255.089844 193.941406 257.976563 C 193.722656 261.078125 194.484375 264.726563 196.445313 268.210938 C 196.816406 268.890625 197.21875 269.539063 197.644531 270.15625 L 197.9375 270.535156 "/>
<path style=" stroke:none;fill-rule:evenodd;fill:rgb(17.298889%,31.799316%,59.599304%);fill-opacity:1;" d="M 233.007813 285.363281 C 228.308594 285.363281 223.660156 285.363281 219.09375 285.363281 L 218.429688 285.429688 C 223.308594 294.128906 227.996094 301.902344 232.476563 308.652344 C 239.769531 319.59375 246.519531 327.8125 252.5625 332.820313 C 252.890625 312.898438 246.25 306.855469 240.804688 301.957031 C 236.671875 298.203125 233.1875 295.046875 233.132813 287.75 C 233.132813 286.945313 233.238281 286.144531 233.464844 285.367188 L 233.007813 285.363281 "/>
<path style=" stroke:none;fill-rule:evenodd;fill:rgb(17.298889%,31.799316%,59.599304%);fill-opacity:1;" d="M 202.621094 285.363281 C 163.683594 285.363281 133.703125 285.363281 131.902344 285.363281 C 143.972656 314.089844 160.296875 339.3125 180.515625 360.308594 C 201.480469 382.078125 224.789063 398.984375 251.632813 411.878906 L 251.691406 411.386719 L 251.691406 394.4375 C 250.332031 392.914063 248.863281 391.226563 247.394531 389.539063 C 241.566406 382.84375 235.363281 375.710938 230.519531 375.65625 C 227.6875 375.601563 224.746094 375.710938 222.027344 375.820313 C 216.855469 375.984375 212.285156 376.148438 209.179688 375.222656 C 207.929688 374.839844 206.894531 374.1875 206.1875 373.371094 C 205.644531 372.773438 205.316406 372.066406 205.152344 371.304688 C 204.988281 370.539063 205.046875 369.726563 205.316406 368.90625 C 205.644531 367.929688 206.1875 366.894531 207.113281 365.804688 C 199.546875 364.878906 193.777344 363.300781 190.839844 360.636719 C 187.40625 357.585938 187.246094 353.558594 191.597656 348.113281 C 185.613281 346.699219 180.660156 344.792969 177.066406 342.507813 C 174.179688 340.660156 172.167969 338.535156 171.132813 336.195313 C 170.097656 333.691406 170.152344 331.023438 171.515625 328.191406 C 172.328125 326.507813 173.691406 324.765625 175.542969 322.96875 C 169.988281 318.394531 168.246094 313.007813 168.902344 308.488281 C 169.335938 305.496094 170.808594 302.9375 172.875 301.195313 C 174.996094 299.453125 177.773438 298.582031 180.769531 299.070313 C 184.902344 299.78125 189.476563 303.261719 193.070313 310.773438 C 195.355469 308.433594 197.476563 306.855469 199.492188 306.09375 C 201.722656 305.277344 203.792969 305.277344 205.589844 306.148438 C 207.386719 306.964844 208.855469 308.542969 209.996094 310.773438 C 211.519531 313.660156 212.503906 317.742188 212.882813 322.859375 C 214.027344 321.769531 215.222656 321.117188 216.421875 320.789063 C 218.109375 320.410156 219.742188 320.574219 221.210938 321.390625 C 222.625 322.097656 223.933594 323.296875 224.96875 324.925781 C 226.816406 327.867188 227.960938 332.277344 227.6875 337.664063 C 228.886719 336.792969 229.972656 336.304688 231.0625 336.195313 C 233.1875 335.976563 234.925781 337.066406 236.777344 338.914063 C 240.859375 343 241.242188 353.722656 241.511719 361.285156 C 241.621094 364.664063 241.730469 367.382813 242.058594 368.09375 C 243.199219 370.703125 244.996094 373.207031 247.175781 375.550781 C 248.644531 377.183594 250.277344 378.707031 251.964844 380.230469 L 251.964844 345.992188 C 239.609375 332.382813 229.484375 318.613281 221.371094 304.785156 C 217.761719 298.640625 214.550781 292.472656 211.722656 286.285156 L 211.476563 285.890625 C 208.8125 286.566406 205.910156 286.535156 203.140625 285.570313 L 202.621094 285.363281 "/>
<path style=" stroke:none;fill-rule:evenodd;fill:rgb(25.498962%,58.399963%,37.298584%);fill-opacity:1;" d="M 204.171875 282.6875 C 207.328125 283.777344 210.8125 283.285156 213.589844 281.761719 C 214.351563 281.382813 215.113281 280.835938 215.765625 280.183594 C 217.5625 278.496094 218.871094 276.15625 219.359375 273.652344 C 219.902344 271.09375 219.632813 268.371094 218.269531 265.867188 C 217.78125 264.941406 217.183594 264.128906 216.367188 263.257813 C 215.878906 262.984375 214.296875 263.476563 212.230469 264.453125 C 209.78125 265.597656 206.949219 267.339844 204.335938 269.242188 C 201.832031 271.09375 199.546875 273.109375 198.1875 274.742188 C 197.53125 275.558594 197.152344 276.046875 197.152344 276.101563 C 198.949219 279.640625 201.453125 281.761719 204.171875 282.6875 "/>
<path style=" stroke:none;fill-rule:evenodd;fill:rgb(25.498962%,58.399963%,37.298584%);fill-opacity:1;" d="M 305.980469 262.050781 C 306.453125 262.226563 306.9375 262.429688 307.429688 262.65625 C 310.042969 263.910156 313.089844 265.761719 315.8125 267.773438 C 317.5 269.03125 319.066406 270.328125 320.363281 271.554688 L 320.515625 271.394531 C 321.007813 270.707031 321.476563 269.96875 321.910156 269.1875 C 323.816406 265.761719 324.632813 262.058594 324.359375 259.011719 C 324.140625 256.125 322.996094 253.839844 320.984375 252.75 C 319.023438 251.660156 316.410156 251.933594 313.90625 253.296875 C 311.132813 254.710938 308.464844 257.378906 306.558594 260.859375 C 306.386719 261.179688 306.21875 261.503906 306.0625 261.824219 L 305.980469 262.050781 "/>
<path style=" stroke:none;fill-rule:evenodd;fill:rgb(25.498962%,58.399963%,37.298584%);fill-opacity:1;" d="M 304.761719 282.796875 C 307.539063 284.320313 310.96875 284.8125 314.179688 283.667969 C 316.847656 282.742188 319.351563 280.675781 321.148438 277.082031 C 321.148438 277.082031 320.765625 276.535156 320.113281 275.773438 C 318.808594 274.144531 316.519531 272.128906 313.960938 270.277344 C 311.402344 268.371094 308.519531 266.632813 306.125 265.488281 C 304.054688 264.507813 302.421875 264.019531 301.933594 264.289063 C 301.171875 265.105469 300.519531 265.976563 300.082031 266.847656 C 298.667969 269.40625 298.394531 272.128906 298.9375 274.632813 C 299.484375 277.1875 300.789063 279.53125 302.53125 281.21875 C 303.238281 281.816406 303.945313 282.359375 304.761719 282.796875 "/>
<path style=" stroke:none;fill-rule:evenodd;fill:rgb(17.298889%,31.799316%,59.599304%);fill-opacity:1;" d="M 259.535156 106.65625 C 280.652344 134.527344 300.914063 156.675781 321.402344 174.230469 C 342.242188 192.082031 363.003906 204.726563 383.289063 211.976563 C 362.835938 211.976563 161.3125 211.976563 139.828125 211.976563 C 156.488281 206.339844 173.046875 197.382813 189.191406 185.136719 C 222.546875 159.839844 247.113281 125.949219 259.535156 106.65625 "/>
<path style=" stroke:none;fill-rule:evenodd;fill:rgb(52.89917%,19.198608%,23.098755%);fill-opacity:1;" d="M 272.828125 415.4375 C 301.167969 401.164063 325.59375 383.816406 345.574219 363.753906 C 366.179688 343.0625 382.5625 318.980469 394.367188 292.046875 C 395.039063 290.523438 396.65625 286.621094 397.109375 285.480469 C 397.972656 283.304688 399.28125 279.988281 399.621094 279.066406 C 403.007813 269.976563 405.949219 260.480469 408.382813 250.773438 C 410.089844 243.980469 411.574219 236.964844 412.828125 229.796875 L 412.945313 228.964844 C 414.964844 239.023438 416 249.347656 416 259.828125 C 416 301.433594 399.714844 340.636719 370.144531 370.203125 C 343.871094 396.480469 309.960938 412.25 273.5 415.410156 L 272.828125 415.4375 "/>
<path style=" stroke:none;fill-rule:evenodd;fill:rgb(52.89917%,19.198608%,23.098755%);fill-opacity:1;" d="M 121.980469 278.710938 L 123.800781 283.265625 C 136.359375 314.710938 153.832031 342.183594 175.726563 364.917969 C 196.710938 386.707031 217.683594 402.53125 242.378906 415.023438 L 241.746094 414.964844 C 207.003906 410.953125 174.757813 395.410156 149.5 370.203125 C 119.96875 340.613281 103.703125 301.414063 103.703125 259.828125 C 103.703125 248.742188 104.859375 237.824219 107.117188 227.210938 L 107.179688 226.933594 C 108.855469 235.109375 110.773438 243.105469 112.910156 250.816406 C 116.03125 262.074219 119.695313 272.996094 123.800781 283.265625 L 124.636719 285.363281 "/>
<path style=" stroke:none;fill-rule:evenodd;fill:rgb(52.89917%,19.198608%,23.098755%);fill-opacity:1;" d="M 266.277344 103.835938 C 305.523438 105.425781 342.195313 121.5 370.144531 149.503906 C 387.785156 167.144531 400.699219 188.207031 408.246094 211.160156 L 408.410156 211.527344 C 381.753906 207.597656 353.957031 193.367188 325.726563 169.179688 C 305.921875 152.214844 286.261719 130.8125 265.75 103.871094 L 266.277344 103.835938 "/>
<path style=" stroke:none;fill-rule:evenodd;fill:rgb(52.89917%,19.198608%,23.098755%);fill-opacity:1;" d="M 253.4375 103.84375 C 240.675781 123.550781 216.984375 155.703125 185.164063 179.835938 C 161.113281 198.074219 136.402344 208.757813 111.664063 211.621094 L 111.296875 211.632813 C 118.8125 188.503906 131.765625 167.273438 149.503906 149.503906 C 177.421875 121.585938 213.960938 105.523438 253.027344 103.851563 L 253.4375 103.84375 "/>
<path style=" stroke:none;fill-rule:evenodd;fill:rgb(95.698547%,82.699585%,32.199097%);fill-opacity:1;" d="M 265.621094 218.832031 C 268.582031 220.828125 270.84375 224.332031 271.289063 229.34375 C 274.28125 228.148438 277.164063 228.421875 279.507813 229.726563 C 280.8125 230.433594 281.902344 231.46875 282.71875 232.664063 C 283.589844 233.917969 284.132813 235.332031 284.40625 236.855469 C 284.839844 239.742188 284.078125 243.0625 281.574219 246.003906 C 283.207031 246.4375 284.515625 247.199219 285.546875 248.234375 C 286.746094 249.484375 287.5625 251.0625 287.890625 252.75 C 288.269531 254.382813 288.21875 256.179688 287.78125 257.921875 C 287.289063 259.988281 286.203125 262.003906 284.625 263.582031 C 286.039063 264.234375 287.179688 265.214844 287.996094 266.359375 C 289.03125 267.828125 289.519531 269.515625 289.519531 271.367188 C 289.519531 273.109375 289.085938 274.902344 288.160156 276.644531 C 287.871094 277.214844 287.53125 277.773438 287.140625 278.3125 L 286.886719 278.703125 C 290.289063 278.703125 293.667969 278.703125 297.011719 278.703125 L 296.894531 278.421875 C 296.453125 277.421875 296.113281 276.367188 295.890625 275.285156 C 295.238281 272.074219 295.5625 268.589844 297.359375 265.378906 C 297.960938 264.234375 298.773438 263.144531 299.8125 262.058594 L 299.863281 262.003906 L 299.917969 261.949219 C 300.648438 261.351563 301.664063 261.148438 302.878906 261.265625 L 303.019531 261.003906 C 303.269531 260.464844 303.542969 259.925781 303.839844 259.390625 C 306.070313 255.363281 309.171875 252.261719 312.4375 250.574219 C 315.921875 248.722656 319.515625 248.394531 322.507813 250.027344 C 325.5 251.660156 327.1875 254.871094 327.460938 258.738281 C 327.789063 262.386719 326.863281 266.6875 324.632813 270.714844 C 324.042969 271.773438 323.390625 272.769531 322.6875 273.6875 L 322.574219 273.902344 C 323.820313 275.453125 324.449219 276.878906 324.105469 278.050781 L 323.917969 278.703125 C 362.609375 278.703125 391.820313 278.703125 392.636719 278.703125 C 396.242188 269.265625 399.378906 259.339844 401.933594 249.15625 C 404.394531 239.351563 406.367188 229.085938 407.851563 218.632813 C 405.871094 218.632813 336.449219 218.632813 265.394531 218.632813 L 265.621094 218.832031 "/>
<path style=" stroke:none;fill-rule:evenodd;fill:rgb(95.698547%,82.699585%,32.199097%);fill-opacity:1;" d="M 253.050781 218.632813 C 182.65625 218.632813 114.398438 218.632813 112.355469 218.632813 C 114.296875 229.117188 116.628906 239.34375 119.316406 249.042969 C 122.152344 259.269531 125.472656 269.234375 129.171875 278.710938 C 129.953125 278.710938 157.488281 278.707031 194.484375 278.707031 L 195.070313 278.699219 C 194.828125 278.285156 194.597656 277.855469 194.375 277.410156 L 194.320313 277.355469 C 193.777344 276.101563 194.375 274.523438 195.789063 272.78125 L 195.546875 272.511719 C 194.894531 271.632813 194.28125 270.6875 193.722656 269.679688 C 191.492188 265.648438 190.566406 261.351563 190.839844 257.703125 C 191.164063 253.839844 192.851563 250.628906 195.789063 248.996094 C 198.785156 247.363281 202.433594 247.6875 205.859375 249.539063 C 209.128906 251.226563 212.285156 254.328125 214.515625 258.355469 C 214.789063 258.855469 215.046875 259.355469 215.285156 259.859375 L 215.476563 260.253906 C 216.664063 260.132813 217.660156 260.324219 218.378906 260.914063 L 218.542969 261.078125 C 219.523438 262.113281 220.339844 263.199219 220.992188 264.398438 C 222.734375 267.609375 223.0625 271.039063 222.40625 274.253906 C 222.113281 275.675781 221.617188 277.046875 220.960938 278.316406 L 220.800781 278.707031 C 225.140625 278.707031 229.546875 278.707031 233.992188 278.707031 L 233.679688 278.351563 C 232.039063 276.8125 230.808594 275.253906 229.972656 273.761719 C 228.941406 271.910156 228.558594 270.113281 228.722656 268.425781 C 228.941406 266.6875 229.757813 265.105469 231.171875 263.910156 C 231.933594 263.199219 232.96875 262.65625 234.164063 262.167969 C 232.152344 260.535156 230.683594 258.628906 229.757813 256.671875 C 228.941406 254.871094 228.613281 253.078125 228.886719 251.390625 C 229.101563 249.59375 230.027344 247.960938 231.554688 246.652344 C 232.75 245.675781 234.382813 244.910156 236.453125 244.421875 C 233.621094 240.9375 232.96875 237.347656 233.675781 234.296875 C 234.003906 232.828125 234.710938 231.523438 235.582031 230.433594 C 236.507813 229.289063 237.703125 228.421875 239.007813 227.875 C 241.351563 226.785156 244.179688 226.730469 247.011719 228.148438 C 247.671875 223.75 249.894531 220.625 252.753906 218.773438 L 253.050781 218.632813 "/>
<path style=" stroke:none;fill-rule:evenodd;fill:rgb(17.298889%,31.799316%,59.599304%);fill-opacity:1;" d="M 305.8125 286.617188 C 302.507813 294.601563 298.78125 302.265625 294.585938 309.523438 C 286.257813 323.949219 276.023438 336.792969 263.558594 347.40625 L 263.558594 381.863281 C 273.953125 373.863281 274.28125 366.078125 274.609375 358.675781 C 274.824219 353.339844 275.042969 348.226563 278.527344 343.214844 C 279.886719 341.3125 282.066406 340.277344 284.515625 339.949219 C 286.148438 339.785156 287.890625 339.898438 289.519531 340.277344 C 288.703125 335.703125 289.25 331.949219 290.613281 329.171875 C 291.535156 327.269531 292.84375 325.851563 294.421875 324.871094 C 296 323.894531 297.796875 323.457031 299.644531 323.566406 C 300.953125 323.621094 302.261719 324.003906 303.511719 324.65625 C 303.128906 320.628906 304.164063 317.144531 305.960938 314.421875 C 307.320313 312.40625 309.0625 310.828125 311.078125 309.796875 C 313.089844 308.707031 315.269531 308.160156 317.5 308.21875 C 320.277344 308.269531 323.054688 309.304688 325.394531 311.375 C 327.679688 305.820313 331.597656 303.210938 335.625 302.609375 C 339.328125 302.066406 343.03125 303.261719 345.804688 305.441406 C 348.636719 307.671875 350.484375 310.9375 350.269531 314.53125 C 349.996094 318.34375 347.492188 322.421875 341.289063 325.796875 C 342.976563 327.488281 344.0625 329.335938 344.714844 331.132813 C 345.585938 333.910156 345.371094 336.628906 344.171875 339.132813 C 343.085938 341.582031 341.070313 343.816406 338.296875 345.609375 C 334.972656 347.84375 330.617188 349.421875 325.449219 350.019531 C 326.371094 351.652344 326.917969 353.230469 327.027344 354.757813 C 327.1875 356.988281 326.589844 359.109375 325.285156 360.90625 C 324.03125 362.59375 322.183594 364.0625 319.785156 364.988281 C 316.957031 366.132813 313.308594 366.621094 309.117188 366.132813 C 309.390625 367.328125 309.390625 368.582031 309.0625 369.777344 C 308.628906 371.683594 307.484375 373.480469 306.125 374.621094 C 305.90625 374.789063 305.6875 374.949219 305.472656 375.113281 C 300.246094 378.597656 296.816406 377.945313 293.167969 377.289063 C 287.453125 376.203125 280.976563 375.058594 263.070313 394.710938 L 263.070313 412.242188 L 263.054688 412.8125 C 293.652344 398.261719 319.816406 380.199219 340.863281 359.066406 C 361.894531 337.945313 378.367188 313.144531 389.941406 285.359375 C 388.121094 285.359375 357.449219 285.359375 317.839844 285.359375 L 317.558594 285.511719 C 316.78125 285.960938 315.976563 286.320313 315.160156 286.609375 C 312.136719 287.667969 308.933594 287.566406 306.027344 286.667969 L 305.8125 286.617188 "/>
<path style=" stroke:none;fill-rule:evenodd;fill:rgb(17.298889%,31.799316%,59.599304%);fill-opacity:1;" d="M 299.945313 285.359375 C 294.796875 285.359375 289.554688 285.359375 284.261719 285.359375 L 283.734375 285.453125 C 284.433594 286.746094 284.777344 288.175781 284.730469 289.601563 C 284.40625 297.058594 280.105469 300.488281 275.371094 304.351563 C 269.003906 309.523438 261.652344 315.511719 263.503906 334.617188 C 272.648438 326.394531 281.195313 316.273438 288.976563 304.570313 C 292.964844 298.566406 296.738281 292.164063 300.28125 285.402344 L 299.945313 285.359375 "/>
<path style=" stroke:none;fill-rule:nonzero;fill:rgb(13.699341%,12.199402%,12.5%);fill-opacity:1;" d="M 90.042969 404.085938 L 81.585938 393.953125 C 80.644531 392.820313 78.945313 392.671875 77.816406 393.613281 L 75.054688 395.914063 C 73.921875 396.859375 73.769531 398.558594 74.714844 399.6875 L 88.042969 415.65625 C 88.984375 416.785156 90.683594 416.9375 91.816406 415.996094 L 128.179688 385.640625 C 129.3125 384.695313 129.464844 383 128.519531 381.867188 L 125.367188 378.089844 C 124.421875 376.957031 122.726563 376.804688 121.59375 377.746094 L 105.824219 390.910156 L 97.996094 381.53125 C 97.054688 380.398438 95.355469 380.246094 94.222656 381.191406 L 91.464844 383.492188 C 90.335938 384.4375 90.183594 386.136719 91.125 387.265625 L 98.953125 396.644531 L 90.042969 404.085938 "/>
<path style=" stroke:none;fill-rule:nonzero;fill:rgb(13.699341%,12.199402%,12.5%);fill-opacity:1;" d="M 70.34375 377.113281 L 62.953125 364.855469 C 62.191406 363.59375 60.539063 363.183594 59.277344 363.941406 L 56.199219 365.796875 C 54.9375 366.558594 54.527344 368.214844 55.289063 369.476563 L 66.601563 388.246094 C 67.363281 389.507813 69.015625 389.914063 70.277344 389.15625 L 110.847656 364.703125 C 112.109375 363.941406 112.519531 362.285156 111.757813 361.023438 L 100.445313 342.253906 C 99.683594 340.992188 98.03125 340.585938 96.769531 341.34375 L 93.691406 343.199219 C 92.429688 343.960938 92.019531 345.613281 92.78125 346.875 L 100.167969 359.136719 L 87.953125 366.5 L 80.886719 354.78125 C 80.125 353.519531 78.472656 353.109375 77.210938 353.867188 L 74.132813 355.722656 C 72.871094 356.484375 72.460938 358.140625 73.21875 359.402344 L 80.285156 371.121094 L 70.34375 377.113281 "/>
<path style=" stroke:none;fill-rule:nonzero;fill:rgb(13.699341%,12.199402%,12.5%);fill-opacity:1;" d="M 59.09375 337.609375 C 59.09375 337.609375 59.101563 337.640625 59.113281 337.679688 C 59.125 337.714844 60.28125 337.371094 61.683594 336.917969 L 90.648438 327.53125 C 92.050781 327.078125 93.566406 327.855469 94.023438 329.253906 L 95.539063 333.9375 C 95.992188 335.339844 95.21875 336.855469 93.816406 337.3125 L 47.421875 352.347656 C 46.023438 352.800781 44.503906 352.023438 44.050781 350.621094 L 43.414063 348.667969 C 42.960938 347.265625 43.28125 345.132813 44.128906 343.925781 L 69.089844 308.347656 C 69.089844 308.347656 69.082031 308.320313 69.070313 308.28125 C 69.054688 308.246094 67.898438 308.585938 66.5 309.042969 L 37.867188 318.320313 C 36.464844 318.773438 34.949219 318 34.492188 316.597656 L 32.976563 311.914063 C 32.519531 310.511719 33.296875 308.996094 34.699219 308.539063 L 80.757813 293.613281 C 82.160156 293.160156 83.679688 293.9375 84.132813 295.335938 L 84.765625 297.292969 C 85.21875 298.695313 84.898438 300.828125 84.054688 302.03125 L 59.09375 337.609375 "/>
<path style=" stroke:none;fill-rule:nonzero;fill:rgb(13.699341%,12.199402%,12.5%);fill-opacity:1;" d="M 37.96875 281.78125 L 36.757813 267.519531 C 36.632813 266.050781 35.332031 264.953125 33.863281 265.078125 L 30.28125 265.382813 C 28.8125 265.503906 27.714844 266.808594 27.839844 268.277344 L 29.695313 290.113281 C 29.820313 291.582031 31.121094 292.679688 32.589844 292.554688 L 79.789063 288.546875 C 81.257813 288.421875 82.355469 287.117188 82.234375 285.648438 L 80.378906 263.8125 C 80.253906 262.34375 78.949219 261.246094 77.480469 261.371094 L 73.902344 261.675781 C 72.433594 261.800781 71.335938 263.101563 71.457031 264.570313 L 72.671875 278.835938 L 58.457031 280.039063 L 57.296875 266.40625 C 57.171875 264.9375 55.871094 263.839844 54.402344 263.964844 L 50.820313 264.269531 C 49.351563 264.390625 48.253906 265.695313 48.378906 267.164063 L 49.535156 280.800781 L 37.96875 281.78125 "/>
<path style=" stroke:none;fill-rule:nonzero;fill:rgb(13.699341%,12.199402%,12.5%);fill-opacity:1;" d="M 81.417969 222.292969 C 82.722656 221.605469 83.664063 222.242188 83.507813 223.707031 L 82.761719 230.757813 C 82.605469 232.222656 81.386719 233.929688 80.050781 234.554688 L 59.988281 243.90625 C 59.988281 243.90625 61.171875 244.171875 62.636719 244.328125 L 78.449219 246.003906 C 79.914063 246.160156 80.988281 247.484375 80.832031 248.949219 L 80.3125 253.847656 C 80.15625 255.3125 78.832031 256.382813 77.367188 256.226563 L 30.261719 251.234375 C 28.796875 251.078125 27.722656 249.753906 27.878906 248.289063 L 29.0625 237.113281 C 30.164063 226.753906 35.511719 220.074219 46.707031 221.261719 C 53.382813 221.96875 59.667969 226.363281 60.105469 233.511719 L 81.417969 222.292969 M 52.8125 243.285156 L 52.953125 241.964844 C 53.546875 236.332031 52.300781 232.191406 45.902344 231.515625 C 39.433594 230.828125 37.746094 234.796875 37.171875 240.222656 L 37.027344 241.613281 L 52.8125 243.285156 "/>
<path style=" stroke:none;fill-rule:nonzero;fill:rgb(13.699341%,12.199402%,12.5%);fill-opacity:1;" d="M 39.5 187.554688 C 42.671875 178.292969 48.261719 173.851563 58.183594 177.25 C 61.757813 178.472656 65.429688 181.136719 66.347656 184.925781 C 69.421875 179.398438 76.28125 178.789063 81.773438 180.671875 C 91.566406 184.023438 93.574219 192.398438 90.472656 201.464844 L 86.105469 214.214844 C 85.628906 215.605469 84.097656 216.355469 82.703125 215.878906 L 37.890625 200.53125 C 36.496094 200.054688 35.746094 198.523438 36.222656 197.128906 L 39.5 187.554688 M 59.460938 197.050781 L 59.867188 195.859375 C 61.5 191.097656 60.902344 188.308594 55.742188 186.539063 C 50.648438 184.796875 48.328125 187.253906 46.921875 191.355469 L 46.492188 192.609375 L 59.460938 197.050781 M 80.761719 204.347656 L 81.464844 202.296875 C 83.253906 197.070313 84.132813 192.34375 77.648438 190.125 C 71.164063 187.90625 69.089844 193.105469 67.410156 198.003906 L 66.867188 199.589844 L 80.761719 204.347656 "/>
<path style=" stroke:none;fill-rule:nonzero;fill:rgb(13.699341%,12.199402%,12.5%);fill-opacity:1;" d="M 93.238281 167.621094 L 98.792969 175.023438 C 99.679688 176.203125 99.765625 178.191406 98.988281 179.441406 L 96.101563 184.101563 C 95.324219 185.351563 93.957031 185.421875 93.0625 184.246094 L 61.15625 142.503906 C 60.261719 141.332031 60.167969 139.351563 60.941406 138.097656 L 62.320313 135.878906 C 63.097656 134.625 64.914063 133.839844 66.359375 134.136719 L 117.644531 144.601563 C 119.089844 144.894531 119.636719 146.160156 118.859375 147.410156 L 115.894531 152.1875 C 115.121094 153.441406 113.304688 154.21875 111.859375 153.921875 L 102.898438 152.050781 L 93.238281 167.621094 M 74.507813 145.550781 L 74.433594 145.667969 L 87.65625 160.699219 L 94.253906 150.0625 L 74.507813 145.550781 "/>
<path style=" stroke:none;fill-rule:nonzero;fill:rgb(13.699341%,12.199402%,12.5%);fill-opacity:1;" d="M 128.453125 105.339844 L 142.722656 120.59375 C 143.726563 121.671875 145.433594 121.726563 146.507813 120.71875 L 150.101563 117.359375 C 151.179688 116.351563 151.234375 114.648438 150.230469 113.570313 L 117.871094 78.976563 C 116.867188 77.898438 115.160156 77.84375 114.085938 78.847656 L 110.492188 82.210938 C 109.414063 83.21875 109.359375 84.921875 110.363281 85.996094 L 122.722656 99.210938 L 108.828125 112.203125 L 96.472656 98.988281 C 95.464844 97.914063 93.761719 97.855469 92.6875 98.863281 L 89.09375 102.226563 C 88.015625 103.230469 87.957031 104.9375 88.964844 106.011719 L 121.320313 140.609375 C 122.328125 141.683594 124.03125 141.742188 125.109375 140.734375 L 128.703125 137.371094 C 129.777344 136.367188 129.835938 134.660156 128.828125 133.585938 L 114.5625 118.332031 L 128.453125 105.339844 "/>
<path style=" stroke:none;fill-rule:nonzero;fill:rgb(13.699341%,12.199402%,12.5%);fill-opacity:1;" d="M 197.789063 82.25 L 211.371094 77.730469 C 212.769531 77.265625 214.292969 78.027344 214.757813 79.425781 L 215.894531 82.835938 C 216.359375 84.230469 215.597656 85.757813 214.199219 86.222656 L 193.40625 93.144531 C 192.007813 93.609375 190.480469 92.847656 190.015625 91.449219 L 175.054688 46.503906 C 174.589844 45.105469 175.351563 43.582031 176.75 43.117188 L 197.542969 36.195313 C 198.941406 35.730469 200.464844 36.492188 200.929688 37.890625 L 202.066406 41.300781 C 202.53125 42.695313 201.769531 44.222656 200.371094 44.6875 L 186.789063 49.210938 L 190.453125 60.222656 L 203.441406 55.898438 C 204.839844 55.433594 206.363281 56.195313 206.828125 57.597656 L 207.964844 61.003906 C 208.429688 62.402344 207.664063 63.925781 206.269531 64.394531 L 193.28125 68.714844 L 197.789063 82.25 "/>
<path style=" stroke:none;fill-rule:nonzero;fill:rgb(13.699341%,12.199402%,12.5%);fill-opacity:1;" d="M 265.304688 67.003906 C 266.867188 70.351563 269.820313 73.214844 273.53125 73.5 C 277.714844 73.820313 280.566406 70.460938 280.878906 66.414063 C 281.292969 60.976563 276.390625 59.058594 272.398438 57.140625 C 265.847656 53.835938 261.160156 50.039063 261.78125 41.882813 C 262.449219 33.164063 269.472656 26.617188 278.328125 27.296875 C 281.546875 27.542969 285.542969 28.945313 288.679688 31.039063 C 289.597656 31.65625 290.441406 32.328125 291.171875 33.050781 C 291.882813 33.714844 292.003906 34.425781 291.273438 35.472656 L 287.976563 39.625 C 287.261719 40.570313 286.648438 40.410156 285.855469 39.546875 C 284.117188 37.660156 282.128906 36.28125 279.339844 36.070313 C 276.0625 35.820313 272.734375 38.089844 272.472656 41.507813 C 271.796875 50.363281 292.925781 48.261719 291.578125 65.902344 C 290.769531 76.429688 283.644531 83.390625 272.910156 82.566406 C 268.4375 82.226563 264.832031 80.351563 261.984375 77.480469 C 260.746094 76.230469 259.617188 74.8125 258.6875 73.210938 C 257.816406 71.714844 258.019531 70.53125 259.09375 69.757813 L 262.914063 66.550781 C 264.144531 65.640625 264.871094 66.082031 265.304688 67.003906 "/>
<path style=" stroke:none;fill-rule:nonzero;fill:rgb(13.699341%,12.199402%,12.5%);fill-opacity:1;" d="M 308.507813 66.964844 L 303.960938 83.390625 C 303.566406 84.808594 302.085938 85.648438 300.664063 85.257813 L 295.921875 83.941406 C 294.5 83.550781 293.660156 82.066406 294.054688 80.644531 L 306.695313 34.996094 C 307.089844 33.574219 308.574219 32.734375 309.992188 33.128906 L 320.890625 36.144531 C 331.539063 39.09375 337.304688 45.261719 334.113281 56.785156 C 331.125 67.570313 323.808594 71.203125 313.429688 68.328125 L 308.507813 66.964844 M 310.785156 58.742188 L 312.808594 59.304688 C 318.671875 60.929688 322.191406 60.523438 324.023438 53.921875 C 325.832031 47.382813 322.320313 45.394531 316.792969 43.863281 L 315.039063 43.378906 L 310.785156 58.742188 "/>
<path style=" stroke:none;fill-rule:nonzero;fill:rgb(13.699341%,12.199402%,12.5%);fill-opacity:1;" d="M 346.386719 104.675781 C 332.355469 96.808594 329.65625 81.183594 337.25 67.640625 C 344.910156 53.980469 359.820313 48.550781 373.546875 56.246094 C 387.269531 63.941406 390.410156 79.496094 382.75 93.160156 C 375.15625 106.699219 360.414063 112.542969 346.386719 104.675781 M 368.585938 65.089844 C 360.105469 60.335938 350.898438 65.035156 346.726563 72.476563 C 342.757813 79.550781 341.402344 90.257813 351.347656 95.832031 C 361.289063 101.40625 369.71875 94.667969 373.683594 87.59375 C 377.855469 80.152344 377.0625 69.84375 368.585938 65.089844 "/>
<path style=" stroke:none;fill-rule:nonzero;fill:rgb(13.699341%,12.199402%,12.5%);fill-opacity:1;" d="M 392.898438 110.082031 L 380.085938 123.539063 C 379.078125 124.613281 377.371094 124.667969 376.296875 123.660156 L 372.707031 120.292969 C 371.632813 119.285156 371.578125 117.578125 372.585938 116.507813 L 404.992188 81.953125 C 406 80.882813 407.703125 80.824219 408.777344 81.835938 L 416.976563 89.519531 C 424.574219 96.648438 426.671875 104.941406 418.96875 113.15625 C 414.378906 118.050781 407.078125 120.410156 401.117188 116.449219 L 397.203125 140.214844 C 396.964844 141.667969 395.886719 142.03125 394.8125 141.023438 L 389.640625 136.175781 C 388.566406 135.167969 387.941406 133.164063 388.25 131.722656 L 392.898438 110.082031 M 397.722656 104.734375 L 398.691406 105.640625 C 402.824219 109.515625 406.878906 111.019531 411.28125 106.328125 C 415.730469 101.585938 413.582031 97.84375 409.601563 94.109375 L 408.582031 93.15625 L 397.722656 104.734375 "/>
<path style=" stroke:none;fill-rule:nonzero;fill:rgb(13.699341%,12.199402%,12.5%);fill-opacity:1;" d="M 434.441406 206.761719 C 433.710938 208.039063 432.628906 207.984375 432.039063 206.632813 L 428.890625 199.433594 C 428.300781 198.082031 428.4375 195.945313 429.195313 194.683594 L 442.785156 172.039063 C 442.785156 172.039063 442.773438 172.011719 442.757813 171.972656 C 442.742188 171.9375 441.625 172.394531 440.273438 172.984375 L 423.464844 180.335938 C 422.113281 180.925781 420.523438 180.304688 419.933594 178.953125 L 417.964844 174.445313 C 417.371094 173.09375 417.992188 171.507813 419.34375 170.914063 L 462.746094 151.9375 C 464.09375 151.347656 465.683594 151.96875 466.273438 153.316406 L 468.246094 157.828125 C 468.835938 159.179688 468.21875 160.773438 466.871094 161.371094 L 449 169.320313 L 473.289063 174.753906 C 474.726563 175.074219 476.386719 176.445313 476.976563 177.792969 L 479.898438 184.480469 C 480.492188 185.832031 479.8125 186.609375 478.394531 186.207031 L 450.664063 178.363281 L 434.441406 206.761719 "/>
<path style=" stroke:none;fill-rule:nonzero;fill:rgb(13.699341%,12.199402%,12.5%);fill-opacity:1;" d="M 488.890625 238.816406 C 490.339844 238.558594 491.3125 237.15625 491.054688 235.707031 L 490.191406 230.863281 C 489.929688 229.410156 488.53125 228.4375 487.082031 228.695313 L 460.667969 233.410156 C 454.265625 234.554688 445.148438 235.613281 443.613281 227.007813 C 442.078125 218.402344 450.996094 216.242188 457.398438 215.097656 L 483.8125 210.382813 C 485.265625 210.125 486.238281 208.726563 485.980469 207.277344 L 485.113281 202.429688 C 484.855469 200.980469 483.457031 200.003906 482.007813 200.265625 L 453.597656 205.335938 C 440.929688 207.597656 432.320313 214.675781 434.800781 228.582031 C 437.285156 242.488281 447.8125 246.148438 460.480469 243.886719 L 488.890625 238.816406 "/>
<path style=" stroke:none;fill-rule:nonzero;fill:rgb(13.699341%,12.199402%,12.5%);fill-opacity:1;" d="M 488.972656 263.664063 C 490.445313 263.691406 491.671875 262.503906 491.695313 261.03125 L 491.777344 256.109375 C 491.804688 254.636719 490.617188 253.410156 489.144531 253.386719 L 441.78125 252.601563 C 440.308594 252.578125 439.082031 253.761719 439.058594 255.234375 L 438.734375 274.699219 C 438.710938 276.171875 439.894531 277.398438 441.367188 277.421875 L 444.960938 277.484375 C 446.4375 277.507813 447.660156 276.320313 447.683594 274.847656 L 447.882813 262.984375 L 488.972656 263.664063 "/>
<path style=" stroke:none;fill-rule:nonzero;fill:rgb(13.699341%,12.199402%,12.5%);fill-opacity:1;" d="M 479.808594 327.042969 C 481.246094 327.351563 482.679688 326.425781 482.988281 324.984375 L 484.019531 320.175781 C 484.328125 318.734375 483.40625 317.300781 481.964844 316.992188 L 455.730469 311.359375 C 449.371094 309.992188 440.53125 307.523438 442.367188 298.976563 C 444.203125 290.429688 453.277344 291.808594 459.636719 293.171875 L 485.871094 298.804688 C 487.3125 299.113281 488.742188 298.1875 489.050781 296.75 L 490.085938 291.9375 C 490.394531 290.496094 489.46875 289.0625 488.027344 288.753906 L 459.8125 282.695313 C 447.230469 279.996094 436.582031 283.285156 433.617188 297.097656 C 430.652344 310.910156 439.011719 318.28125 451.589844 320.984375 L 479.808594 327.042969 "/>
<path style=" stroke:none;fill-rule:nonzero;fill:rgb(13.699341%,12.199402%,12.5%);fill-opacity:1;" d="M 492.148438 323.699219 C 489.140625 323.054688 487.207031 320.066406 487.855469 317.054688 C 488.5 314.046875 491.488281 312.113281 494.496094 312.761719 C 497.507813 313.40625 499.4375 316.398438 498.792969 319.40625 C 498.148438 322.414063 495.15625 324.347656 492.148438 323.699219 "/>
<path style=" stroke:none;fill-rule:nonzero;fill:rgb(13.699341%,12.199402%,12.5%);fill-opacity:1;" d="M 495.246094 309.273438 C 492.238281 308.628906 490.304688 305.636719 490.949219 302.628906 C 491.597656 299.621094 494.589844 297.6875 497.597656 298.335938 C 500.605469 298.980469 502.535156 301.972656 501.890625 304.980469 C 501.246094 307.988281 498.253906 309.921875 495.246094 309.273438 "/>
<path style=" stroke:none;fill-rule:nonzero;fill:rgb(13.699341%,12.199402%,12.5%);fill-opacity:1;" d="M 471.429688 354.554688 C 467.308594 363.433594 461.289063 367.269531 451.773438 362.855469 C 448.347656 361.265625 444.976563 358.234375 444.453125 354.371094 C 440.820313 359.546875 433.933594 359.4375 428.667969 356.992188 C 419.28125 352.636719 418.15625 344.097656 422.1875 335.40625 L 427.859375 323.183594 C 428.480469 321.847656 430.078125 321.261719 431.414063 321.878906 L 474.386719 341.816406 C 475.722656 342.4375 476.308594 344.039063 475.6875 345.375 L 471.429688 354.554688 M 432.144531 333.550781 L 431.230469 335.515625 C 428.90625 340.527344 427.539063 345.136719 433.757813 348.019531 C 439.972656 350.90625 442.582031 345.949219 444.761719 341.253906 L 445.464844 339.730469 L 432.144531 333.550781 M 452.570313 343.027344 L 452.039063 344.171875 C 449.921875 348.738281 450.222656 351.574219 455.171875 353.871094 C 460.054688 356.136719 462.621094 353.933594 464.445313 350.003906 L 465.003906 348.796875 L 452.570313 343.027344 "/>
<path style=" stroke:none;fill-rule:nonzero;fill:rgb(13.699341%,12.199402%,12.5%);fill-opacity:1;" d="M 429.621094 414.785156 C 430.789063 415.683594 432.480469 415.464844 433.378906 414.296875 L 436.378906 410.394531 C 437.273438 409.226563 437.054688 407.535156 435.886719 406.636719 L 414.617188 390.28125 C 409.460938 386.316406 402.539063 380.289063 407.867188 373.359375 C 413.199219 366.429688 420.800781 371.570313 425.957031 375.535156 L 447.226563 391.894531 C 448.394531 392.789063 450.085938 392.570313 450.984375 391.402344 L 453.984375 387.5 C 454.882813 386.332031 454.660156 384.640625 453.492188 383.742188 L 430.613281 366.152344 C 420.414063 358.308594 409.386719 356.703125 400.773438 367.902344 C 392.164063 379.101563 396.542969 389.351563 406.742188 397.195313 L 429.621094 414.785156 "/>
<path style=" stroke:none;fill-rule:nonzero;fill:rgb(13.699341%,12.199402%,12.5%);fill-opacity:1;" d="M 442.167969 416.886719 C 439.730469 415.011719 439.269531 411.480469 441.144531 409.039063 C 443.019531 406.601563 446.550781 406.140625 448.988281 408.015625 C 451.425781 409.890625 451.886719 413.421875 450.011719 415.859375 C 448.136719 418.300781 444.605469 418.761719 442.167969 416.886719 "/>
<path style=" stroke:none;fill-rule:nonzero;fill:rgb(13.699341%,12.199402%,12.5%);fill-opacity:1;" d="M 451.160156 405.1875 C 448.722656 403.3125 448.261719 399.78125 450.136719 397.34375 C 452.011719 394.902344 455.542969 394.441406 457.984375 396.320313 C 460.421875 398.195313 460.882813 401.726563 459.007813 404.164063 C 457.132813 406.601563 453.601563 407.0625 451.160156 405.1875 "/>
<path style=" stroke:none;fill-rule:nonzero;fill:rgb(13.699341%,12.199402%,12.5%);fill-opacity:1;" d="M 187.121094 478.054688 C 186.675781 479.460938 187.457031 480.972656 188.859375 481.421875 L 193.550781 482.917969 C 194.953125 483.367188 196.46875 482.585938 196.917969 481.179688 L 211.316406 436.050781 C 211.761719 434.648438 210.980469 433.132813 209.578125 432.6875 L 198.292969 429.085938 C 196.890625 428.636719 195.375 429.417969 194.925781 430.824219 L 193.835938 434.246094 C 193.386719 435.652344 194.167969 437.164063 195.570313 437.613281 L 199.613281 438.902344 L 187.121094 478.054688 "/>
<path style=" stroke:none;fill-rule:nonzero;fill:rgb(13.699341%,12.199402%,12.5%);fill-opacity:1;" d="M 229.28125 490.523438 C 228.304688 491.628906 226.636719 491.699219 225.570313 490.683594 L 222.675781 487.921875 C 221.609375 486.90625 221.558594 485.1875 222.558594 484.105469 L 233.476563 472.296875 L 233.355469 472.140625 C 232.113281 472.46875 230.621094 472.554688 229.164063 472.367188 C 219.59375 471.113281 214.722656 462.011719 215.902344 452.996094 C 217.320313 442.179688 226.023438 435.492188 236.773438 436.898438 C 247.105469 438.253906 254.121094 446.578125 252.742188 457.117188 C 251.925781 463.359375 248.136719 469.140625 244.074219 473.753906 L 229.28125 490.523438 M 226.21875 453.925781 C 225.601563 458.640625 228.058594 464.109375 233.191406 464.78125 C 238.320313 465.457031 242.175781 460.8125 242.789063 456.097656 C 243.410156 451.382813 240.882813 445.902344 235.753906 445.230469 C 230.621094 444.558594 226.839844 449.210938 226.21875 453.925781 "/>
<path style=" stroke:none;fill-rule:nonzero;fill:rgb(13.699341%,12.199402%,12.5%);fill-opacity:1;" d="M 293.746094 464.296875 C 294.5625 475.527344 290.875 492.273438 276.925781 493.289063 C 262.980469 494.304688 256.902344 478.269531 256.082031 467.039063 C 255.261719 455.742188 258.804688 438.9375 272.890625 437.910156 C 286.980469 436.882813 292.921875 452.996094 293.746094 464.296875 M 266.117188 466.167969 C 266.496094 471.402344 269.023438 484.890625 276.277344 484.359375 C 283.601563 483.828125 284.074219 470.121094 283.691406 464.886719 C 283.304688 459.589844 280.863281 446.304688 273.542969 446.835938 C 266.289063 447.367188 265.730469 460.867188 266.117188 466.167969 "/>
<path style=" stroke:none;fill-rule:nonzero;fill:rgb(13.699341%,12.199402%,12.5%);fill-opacity:1;" d="M 306.9375 482.34375 C 306.621094 483.78125 307.53125 485.246094 308.964844 485.597656 L 313.21875 486.640625 C 314.652344 486.988281 316.074219 486.097656 316.386719 484.65625 L 328.179688 429.921875 C 328.488281 428.480469 327.585938 427.632813 326.167969 428.039063 L 295.074219 436.910156 C 293.65625 437.316406 292.828125 438.804688 293.234375 440.222656 L 294.21875 443.675781 C 294.621094 445.09375 296.113281 445.921875 297.53125 445.519531 L 316.203125 440.191406 L 306.9375 482.34375 "/>
<path style=" stroke:none;fill-rule:nonzero;fill:rgb(13.699341%,12.199402%,12.5%);fill-opacity:1;" d="M 161.601563 435.617188 C 161.601563 440.210938 157.878906 443.933594 153.285156 443.933594 C 148.691406 443.933594 144.96875 440.210938 144.96875 435.617188 C 144.96875 431.023438 148.691406 427.300781 153.285156 427.300781 C 157.878906 427.300781 161.601563 431.023438 161.601563 435.617188 "/>
<path style=" stroke:none;fill-rule:nonzero;fill:rgb(13.699341%,12.199402%,12.5%);fill-opacity:1;" d="M 358.046875 435.617188 C 358.046875 440.210938 361.769531 443.933594 366.363281 443.933594 C 370.953125 443.933594 374.679688 440.210938 374.679688 435.617188 C 374.679688 431.023438 370.953125 427.300781 366.363281 427.300781 C 361.769531 427.300781 358.046875 431.023438 358.046875 435.617188 "/>
<path style=" stroke:none;fill-rule:nonzero;fill:rgb(13.699341%,12.199402%,12.5%);fill-opacity:1;" d="M 177.484375 112.164063 C 176.804688 115.574219 175.859375 115.472656 173.550781 115.574219 C 171.238281 115.679688 171.027344 115.574219 171.289063 112.007813 C 171.554688 108.4375 171.835938 104.761719 171.835938 104.761719 C 160.132813 108.324219 147.289063 102.632813 140.992188 91.660156 C 133.542969 78.679688 136.121094 61.960938 149.527344 54.269531 C 152.273438 52.691406 155.316406 51.707031 158.421875 51.300781 C 160.425781 51.003906 161.570313 51.445313 162.546875 53.351563 L 165.753906 58.941406 C 166.722656 60.660156 166.480469 61.382813 164.425781 60.972656 C 161.039063 60.289063 157.476563 60.996094 154.523438 62.691406 C 145.96875 67.597656 145.582031 78.300781 150.105469 86.1875 C 154.527344 93.890625 164.039063 98.667969 172.351563 93.898438 C 175.214844 92.257813 177.453125 89.492188 178.726563 86.398438 C 179.640625 84.179688 180.113281 83.953125 181.136719 85.746094 L 184.480469 91.574219 C 185.542969 93.351563 185.308594 94.574219 184.394531 95.753906 C 182.746094 97.886719 180.949219 99.808594 178.777344 101.371094 C 178.777344 101.371094 178.167969 108.753906 177.484375 112.164063 "/>
</g>
</svg>
